<svg width="30" height="20" viewBox="0 0 27 17" fill="none" xmlns="http://www.w3.org/2000/svg">
<path d="M24.5104 2.55112H16.9594V0.393677H24.5104V2.55112ZM26.3723 13.3383C25.8955 14.7374 24.1835 16.5745 20.8697 16.5745C17.5537 16.5745 14.8677 14.7094 14.8677 10.4527C14.8677 6.23494 17.3757 4.06672 20.764 4.06672C24.0886 4.06672 26.1188 5.989 26.5621 8.84113C26.6463 9.38696 26.6797 10.1226 26.6646 11.1496H18.0057C18.1459 14.6134 21.7629 14.7223 22.9549 13.3383H26.3723ZM18.0812 9.02343H23.4371C23.3238 7.35465 22.2116 6.62976 20.7651 6.62976C19.1837 6.62976 18.3088 7.45821 18.0812 9.02343ZM7.75356 16.5615H0.778564V0.41633H8.2789C14.186 0.503706 14.2982 6.28888 11.213 7.86597C14.9465 9.22515 15.0716 16.5615 7.75356 16.5615ZM4.01472 6.86599H7.88085C10.5863 6.86599 11.0156 3.62984 7.54429 3.62984H4.01472V6.86599ZM7.67266 10.1022H4.01472V13.3556H7.61872C10.9142 13.3556 10.7125 10.1022 7.67266 10.1022Z" fill="white"/>
</svg>
