<svg width="25" height="24" viewBox="0 0 25 24" fill="none" xmlns="http://www.w3.org/2000/svg">
<path d="M12.6677 2.16312C15.8717 2.16312 16.2517 2.17512 17.5177 2.23312C20.7697 2.38112 22.2887 3.92412 22.4367 7.15212C22.4947 8.41712 22.5057 8.79712 22.5057 12.0011C22.5057 15.2061 22.4937 15.5851 22.4367 16.8501C22.2877 20.0751 20.7727 21.6211 17.5177 21.7691C16.2517 21.8271 15.8737 21.8391 12.6677 21.8391C9.46372 21.8391 9.08372 21.8271 7.81872 21.7691C4.55872 21.6201 3.04772 20.0701 2.89972 16.8491C2.84172 15.5841 2.82972 15.2051 2.82972 12.0001C2.82972 8.79612 2.84272 8.41712 2.89972 7.15112C3.04872 3.92412 4.56372 2.38012 7.81872 2.23212C9.08472 2.17512 9.46372 2.16312 12.6677 2.16312ZM12.6677 0.00012207C9.40872 0.00012207 9.00072 0.0141221 7.72072 0.0721221C3.36272 0.272122 0.940725 2.69012 0.740725 7.05212C0.681725 8.33312 0.667725 8.74112 0.667725 12.0001C0.667725 15.2591 0.681725 15.6681 0.739725 16.9481C0.939725 21.3061 3.35772 23.7281 7.71972 23.9281C9.00072 23.9861 9.40872 24.0001 12.6677 24.0001C15.9267 24.0001 16.3357 23.9861 17.6157 23.9281C21.9697 23.7281 24.3977 21.3101 24.5947 16.9481C24.6537 15.6681 24.6677 15.2591 24.6677 12.0001C24.6677 8.74112 24.6537 8.33312 24.5957 7.05312C24.3997 2.69912 21.9787 0.273122 17.6167 0.0731221C16.3357 0.0141221 15.9267 0.00012207 12.6677 0.00012207V0.00012207ZM12.6677 5.83812C9.26472 5.83812 6.50572 8.59712 6.50572 12.0001C6.50572 15.4031 9.26472 18.1631 12.6677 18.1631C16.0707 18.1631 18.8297 15.4041 18.8297 12.0001C18.8297 8.59712 16.0707 5.83812 12.6677 5.83812ZM12.6677 16.0001C10.4587 16.0001 8.66772 14.2101 8.66772 12.0001C8.66772 9.79112 10.4587 8.00012 12.6677 8.00012C14.8767 8.00012 16.6677 9.79112 16.6677 12.0001C16.6677 14.2101 14.8767 16.0001 12.6677 16.0001ZM19.0737 4.15512C18.2777 4.15512 17.6327 4.80012 17.6327 5.59512C17.6327 6.39012 18.2777 7.03512 19.0737 7.03512C19.8687 7.03512 20.5127 6.39012 20.5127 5.59512C20.5127 4.80012 19.8687 4.15512 19.0737 4.15512Z" fill="white"/>
</svg>
