<svg width="26" height="26" viewBox="0 0 26 26" fill="none" xmlns="http://www.w3.org/2000/svg">
<path d="M12.9446 0C5.79488 0 0 5.79596 0 12.9446C0 20.0933 5.79488 25.8893 12.9446 25.8893C20.0944 25.8893 25.8893 20.0933 25.8893 12.9446C25.8893 5.79596 20.0944 0 12.9446 0ZM23.6078 12.3416C20.8301 11.8864 18.2757 11.8616 15.9456 12.2629C15.6824 11.6556 15.4095 11.0493 15.1183 10.4506C17.6101 9.37191 19.6111 7.90701 21.103 6.0473C22.5593 7.76678 23.4729 9.95119 23.6078 12.3416ZM19.4633 4.48639C18.1635 6.16272 16.3696 7.48847 14.0848 8.45608C12.9889 6.44859 11.7354 4.49071 10.3223 2.59001C11.1626 2.3775 12.0385 2.25129 12.9446 2.25129C15.3987 2.25129 17.6565 3.09161 19.4633 4.48639ZM8.11952 3.41523C9.5553 5.29435 10.8282 7.23174 11.935 9.21982C9.31366 9.9911 6.1843 10.387 2.56735 10.4118C3.31383 7.35363 5.3731 4.81001 8.11952 3.41523ZM2.25129 12.9446L2.26531 12.6685C6.4173 12.6631 9.99865 12.1852 12.9986 11.2424C13.2499 11.7548 13.4905 12.2694 13.7213 12.7871C10.0752 13.9273 7.07101 16.2628 4.72803 19.7772C3.1833 17.9229 2.25129 15.5411 2.25129 12.9446ZM6.3817 21.3694C8.5057 18.0383 11.2165 15.8701 14.5778 14.868C15.5789 17.4785 16.3135 20.1645 16.7816 22.9152C13.169 24.3079 9.2813 23.6337 6.3817 21.3694ZM18.8797 21.8333C18.4073 19.2951 17.7147 16.814 16.8086 14.3934C18.8323 14.1075 21.0588 14.1819 23.4956 14.6048C23.0242 17.6101 21.3079 20.2055 18.8797 21.8333Z" fill="white"/>
</svg>
