<svg width="627" height="86" viewBox="0 0 627 86" fill="none" xmlns="http://www.w3.org/2000/svg">
<rect x="0.5" y="0.5" width="625.571" height="85" stroke="white"/>
<rect x="0.5" y="0.5" width="103.429" height="85" stroke="white"/>
<path d="M131.968 35.006C132.4 34.302 132.96 33.75 133.648 33.35C134.352 32.95 135.152 32.75 136.048 32.75V36.278H135.16C134.104 36.278 133.304 36.526 132.76 37.022C132.232 37.518 131.968 38.382 131.968 39.614V46.238H128.608V32.942H131.968V35.006ZM150.671 39.302C150.671 39.782 150.639 40.214 150.575 40.598H140.855C140.935 41.558 141.271 42.31 141.863 42.854C142.455 43.398 143.183 43.67 144.047 43.67C145.295 43.67 146.183 43.134 146.711 42.062H150.335C149.951 43.342 149.215 44.398 148.127 45.23C147.039 46.046 145.703 46.454 144.119 46.454C142.839 46.454 141.687 46.174 140.663 45.614C139.655 45.038 138.863 44.23 138.287 43.19C137.727 42.15 137.447 40.95 137.447 39.59C137.447 38.214 137.727 37.006 138.287 35.966C138.847 34.926 139.631 34.126 140.639 33.566C141.647 33.006 142.807 32.726 144.119 32.726C145.383 32.726 146.511 32.998 147.503 33.542C148.511 34.086 149.287 34.862 149.831 35.87C150.391 36.862 150.671 38.006 150.671 39.302ZM147.191 38.342C147.175 37.478 146.863 36.79 146.255 36.278C145.647 35.75 144.903 35.486 144.023 35.486C143.191 35.486 142.487 35.742 141.911 36.254C141.351 36.75 141.007 37.446 140.879 38.342H147.191ZM165.844 32.942L157.612 52.526H154.036L156.916 45.902L151.588 32.942H155.356L158.788 42.23L162.268 32.942H165.844ZM175.143 32.75C176.151 32.75 177.047 32.974 177.831 33.422C178.615 33.854 179.223 34.502 179.655 35.366C180.103 36.214 180.327 37.238 180.327 38.438V46.238H176.967V38.894C176.967 37.838 176.703 37.03 176.175 36.47C175.647 35.894 174.927 35.606 174.015 35.606C173.087 35.606 172.351 35.894 171.807 36.47C171.279 37.03 171.015 37.838 171.015 38.894V46.238H167.655V28.478H171.015V34.598C171.447 34.022 172.023 33.574 172.743 33.254C173.463 32.918 174.263 32.75 175.143 32.75ZM182.658 39.542C182.658 38.198 182.922 37.006 183.45 35.966C183.994 34.926 184.722 34.126 185.634 33.566C186.562 33.006 187.594 32.726 188.73 32.726C189.722 32.726 190.586 32.926 191.322 33.326C192.074 33.726 192.674 34.23 193.122 34.838V32.942H196.506V46.238H193.122V44.294C192.69 44.918 192.09 45.438 191.322 45.854C190.57 46.254 189.698 46.454 188.706 46.454C187.586 46.454 186.562 46.166 185.634 45.59C184.722 45.014 183.994 44.206 183.45 43.166C182.922 42.11 182.658 40.902 182.658 39.542ZM193.122 39.59C193.122 38.774 192.962 38.078 192.642 37.502C192.322 36.91 191.89 36.462 191.346 36.158C190.802 35.838 190.218 35.678 189.594 35.678C188.97 35.678 188.394 35.83 187.866 36.134C187.338 36.438 186.906 36.886 186.57 37.478C186.25 38.054 186.09 38.742 186.09 39.542C186.09 40.342 186.25 41.046 186.57 41.654C186.906 42.246 187.338 42.702 187.866 43.022C188.41 43.342 188.986 43.502 189.594 43.502C190.218 43.502 190.802 43.35 191.346 43.046C191.89 42.726 192.322 42.278 192.642 41.702C192.962 41.11 193.122 40.406 193.122 39.59ZM207.156 32.75C208.74 32.75 210.02 33.254 210.996 34.262C211.972 35.254 212.46 36.646 212.46 38.438V46.238H209.1V38.894C209.1 37.838 208.836 37.03 208.308 36.47C207.78 35.894 207.06 35.606 206.148 35.606C205.22 35.606 204.484 35.894 203.94 36.47C203.412 37.03 203.148 37.838 203.148 38.894V46.238H199.788V32.942H203.148V34.598C203.596 34.022 204.164 33.574 204.852 33.254C205.556 32.918 206.324 32.75 207.156 32.75ZM219.567 35.702V42.134C219.567 42.582 219.671 42.91 219.879 43.118C220.103 43.31 220.471 43.406 220.983 43.406H222.543V46.238H220.431C217.599 46.238 216.183 44.862 216.183 42.11V35.702H214.599V32.942H216.183V29.654H219.567V32.942H222.543V35.702H219.567ZM224.096 39.542C224.096 38.198 224.36 37.006 224.888 35.966C225.432 34.926 226.16 34.126 227.072 33.566C228 33.006 229.032 32.726 230.168 32.726C231.16 32.726 232.024 32.926 232.76 33.326C233.512 33.726 234.112 34.23 234.56 34.838V32.942H237.944V46.238H234.56V44.294C234.128 44.918 233.528 45.438 232.76 45.854C232.008 46.254 231.136 46.454 230.144 46.454C229.024 46.454 228 46.166 227.072 45.59C226.16 45.014 225.432 44.206 224.888 43.166C224.36 42.11 224.096 40.902 224.096 39.542ZM234.56 39.59C234.56 38.774 234.4 38.078 234.08 37.502C233.76 36.91 233.328 36.462 232.784 36.158C232.24 35.838 231.656 35.678 231.032 35.678C230.408 35.678 229.832 35.83 229.304 36.134C228.776 36.438 228.344 36.886 228.008 37.478C227.688 38.054 227.528 38.742 227.528 39.542C227.528 40.342 227.688 41.046 228.008 41.654C228.344 42.246 228.776 42.702 229.304 43.022C229.848 43.342 230.424 43.502 231.032 43.502C231.656 43.502 232.24 43.35 232.784 43.046C233.328 42.726 233.76 42.278 234.08 41.702C234.4 41.11 234.56 40.406 234.56 39.59ZM257.737 32.75C259.369 32.75 260.681 33.254 261.673 34.262C262.681 35.254 263.185 36.646 263.185 38.438V46.238H259.825V38.894C259.825 37.854 259.561 37.062 259.033 36.518C258.505 35.958 257.785 35.678 256.873 35.678C255.961 35.678 255.233 35.958 254.689 36.518C254.161 37.062 253.897 37.854 253.897 38.894V46.238H250.537V38.894C250.537 37.854 250.273 37.062 249.745 36.518C249.217 35.958 248.497 35.678 247.585 35.678C246.657 35.678 245.921 35.958 245.377 36.518C244.849 37.062 244.585 37.854 244.585 38.894V46.238H241.225V32.942H244.585V34.55C245.017 33.99 245.569 33.55 246.241 33.23C246.929 32.91 247.681 32.75 248.497 32.75C249.537 32.75 250.465 32.974 251.281 33.422C252.097 33.854 252.729 34.478 253.177 35.294C253.609 34.526 254.233 33.91 255.049 33.446C255.881 32.982 256.777 32.75 257.737 32.75ZM265.51 39.542C265.51 38.198 265.774 37.006 266.302 35.966C266.846 34.926 267.574 34.126 268.486 33.566C269.414 33.006 270.446 32.726 271.582 32.726C272.574 32.726 273.438 32.926 274.174 33.326C274.926 33.726 275.526 34.23 275.974 34.838V32.942H279.358V46.238H275.974V44.294C275.542 44.918 274.942 45.438 274.174 45.854C273.422 46.254 272.55 46.454 271.558 46.454C270.438 46.454 269.414 46.166 268.486 45.59C267.574 45.014 266.846 44.206 266.302 43.166C265.774 42.11 265.51 40.902 265.51 39.542ZM275.974 39.59C275.974 38.774 275.814 38.078 275.494 37.502C275.174 36.91 274.742 36.462 274.198 36.158C273.654 35.838 273.07 35.678 272.446 35.678C271.822 35.678 271.246 35.83 270.718 36.134C270.19 36.438 269.758 36.886 269.422 37.478C269.102 38.054 268.942 38.742 268.942 39.542C268.942 40.342 269.102 41.046 269.422 41.654C269.758 42.246 270.19 42.702 270.718 43.022C271.262 43.342 271.838 43.502 272.446 43.502C273.07 43.502 273.654 43.35 274.198 43.046C274.742 42.726 275.174 42.278 275.494 41.702C275.814 41.11 275.974 40.406 275.974 39.59ZM290.007 32.75C291.591 32.75 292.871 33.254 293.847 34.262C294.823 35.254 295.311 36.646 295.311 38.438V46.238H291.951V38.894C291.951 37.838 291.687 37.03 291.159 36.47C290.631 35.894 289.911 35.606 288.999 35.606C288.071 35.606 287.335 35.894 286.791 36.47C286.263 37.03 285.999 37.838 285.999 38.894V46.238H282.639V32.942H285.999V34.598C286.447 34.022 287.015 33.574 287.703 33.254C288.407 32.918 289.175 32.75 290.007 32.75ZM303.715 32.726C304.707 32.726 305.579 32.926 306.331 33.326C307.083 33.71 307.675 34.214 308.107 34.838V32.942H311.491V46.334C311.491 47.566 311.243 48.662 310.747 49.622C310.251 50.598 309.507 51.366 308.515 51.926C307.523 52.502 306.323 52.79 304.915 52.79C303.027 52.79 301.475 52.35 300.259 51.47C299.059 50.59 298.379 49.39 298.219 47.87H301.555C301.731 48.478 302.107 48.958 302.683 49.31C303.275 49.678 303.987 49.862 304.819 49.862C305.795 49.862 306.587 49.566 307.195 48.974C307.803 48.398 308.107 47.518 308.107 46.334V44.27C307.675 44.894 307.075 45.414 306.307 45.83C305.555 46.246 304.691 46.454 303.715 46.454C302.595 46.454 301.571 46.166 300.643 45.59C299.715 45.014 298.979 44.206 298.435 43.166C297.907 42.11 297.643 40.902 297.643 39.542C297.643 38.198 297.907 37.006 298.435 35.966C298.979 34.926 299.707 34.126 300.619 33.566C301.547 33.006 302.579 32.726 303.715 32.726ZM308.107 39.59C308.107 38.774 307.947 38.078 307.627 37.502C307.307 36.91 306.875 36.462 306.331 36.158C305.787 35.838 305.203 35.678 304.579 35.678C303.955 35.678 303.379 35.83 302.851 36.134C302.323 36.438 301.891 36.886 301.555 37.478C301.235 38.054 301.075 38.742 301.075 39.542C301.075 40.342 301.235 41.046 301.555 41.654C301.891 42.246 302.323 42.702 302.851 43.022C303.395 43.342 303.971 43.502 304.579 43.502C305.203 43.502 305.787 43.35 306.331 43.046C306.875 42.726 307.307 42.278 307.627 41.702C307.947 41.11 308.107 40.406 308.107 39.59ZM327.564 30.494C329.42 30.494 331.028 30.838 332.388 31.526C333.748 32.214 334.788 33.182 335.508 34.43C336.244 35.678 336.612 37.118 336.612 38.75C336.612 40.062 336.38 41.302 335.916 42.47C335.468 43.638 334.812 44.582 333.948 45.302C333.084 46.022 332.06 46.382 330.876 46.382C330.044 46.382 329.372 46.214 328.86 45.878C328.348 45.526 328.02 45.03 327.876 44.39C327.412 45.014 326.812 45.51 326.076 45.878C325.34 46.23 324.564 46.406 323.748 46.406C322.532 46.406 321.58 46.046 320.892 45.326C320.204 44.59 319.86 43.59 319.86 42.326C319.86 41.126 320.108 40.006 320.604 38.966C321.1 37.926 321.788 37.094 322.668 36.47C323.548 35.83 324.54 35.51 325.644 35.51C327.02 35.51 327.964 35.99 328.476 36.95L328.692 35.702H331.5L330.372 42.182C330.324 42.486 330.3 42.766 330.3 43.022C330.3 43.406 330.38 43.694 330.54 43.886C330.7 44.078 330.972 44.174 331.356 44.174C331.932 44.174 332.412 43.902 332.796 43.358C333.196 42.814 333.492 42.134 333.684 41.318C333.892 40.502 333.996 39.686 333.996 38.87C333.996 36.934 333.404 35.438 332.22 34.382C331.036 33.31 329.364 32.774 327.204 32.774C325.364 32.774 323.7 33.222 322.212 34.118C320.724 34.998 319.556 36.206 318.708 37.742C317.876 39.262 317.46 40.958 317.46 42.83C317.46 44.814 318.044 46.342 319.212 47.414C320.396 48.486 322.068 49.022 324.228 49.022C325.78 49.022 327.148 48.742 328.332 48.182L328.812 50.39C327.292 51.03 325.604 51.35 323.748 51.35C321.956 51.35 320.388 51.006 319.044 50.318C317.7 49.646 316.66 48.686 315.924 47.438C315.188 46.19 314.82 44.742 314.82 43.094C314.82 40.742 315.364 38.606 316.452 36.686C317.556 34.766 319.076 33.254 321.012 32.15C322.964 31.046 325.148 30.494 327.564 30.494ZM324.804 43.91C325.38 43.91 325.908 43.742 326.388 43.406C326.868 43.07 327.244 42.622 327.516 42.062C327.804 41.502 327.948 40.902 327.948 40.262C327.948 39.59 327.764 39.046 327.396 38.63C327.028 38.214 326.516 38.006 325.86 38.006C325.268 38.006 324.748 38.19 324.3 38.558C323.852 38.91 323.5 39.374 323.244 39.95C323.004 40.526 322.884 41.134 322.884 41.774C322.884 42.43 323.044 42.95 323.364 43.334C323.684 43.718 324.164 43.91 324.804 43.91ZM345.199 32.726C346.191 32.726 347.063 32.926 347.815 33.326C348.567 33.71 349.159 34.214 349.591 34.838V32.942H352.975V46.334C352.975 47.566 352.727 48.662 352.231 49.622C351.735 50.598 350.991 51.366 349.999 51.926C349.007 52.502 347.807 52.79 346.399 52.79C344.511 52.79 342.959 52.35 341.743 51.47C340.543 50.59 339.863 49.39 339.703 47.87H343.039C343.215 48.478 343.591 48.958 344.167 49.31C344.759 49.678 345.471 49.862 346.303 49.862C347.279 49.862 348.071 49.566 348.679 48.974C349.287 48.398 349.591 47.518 349.591 46.334V44.27C349.159 44.894 348.559 45.414 347.791 45.83C347.039 46.246 346.175 46.454 345.199 46.454C344.079 46.454 343.055 46.166 342.127 45.59C341.199 45.014 340.463 44.206 339.919 43.166C339.391 42.11 339.127 40.902 339.127 39.542C339.127 38.198 339.391 37.006 339.919 35.966C340.463 34.926 341.191 34.126 342.103 33.566C343.031 33.006 344.063 32.726 345.199 32.726ZM349.591 39.59C349.591 38.774 349.431 38.078 349.111 37.502C348.791 36.91 348.359 36.462 347.815 36.158C347.271 35.838 346.687 35.678 346.063 35.678C345.439 35.678 344.863 35.83 344.335 36.134C343.807 36.438 343.375 36.886 343.039 37.478C342.719 38.054 342.559 38.742 342.559 39.542C342.559 40.342 342.719 41.046 343.039 41.654C343.375 42.246 343.807 42.702 344.335 43.022C344.879 43.342 345.455 43.502 346.063 43.502C346.687 43.502 347.271 43.35 347.815 43.046C348.359 42.726 348.791 42.278 349.111 41.702C349.431 41.11 349.591 40.406 349.591 39.59ZM372.769 32.75C374.401 32.75 375.713 33.254 376.705 34.262C377.713 35.254 378.217 36.646 378.217 38.438V46.238H374.857V38.894C374.857 37.854 374.593 37.062 374.065 36.518C373.537 35.958 372.817 35.678 371.905 35.678C370.993 35.678 370.265 35.958 369.721 36.518C369.193 37.062 368.929 37.854 368.929 38.894V46.238H365.569V38.894C365.569 37.854 365.305 37.062 364.777 36.518C364.249 35.958 363.529 35.678 362.617 35.678C361.689 35.678 360.953 35.958 360.409 36.518C359.881 37.062 359.617 37.854 359.617 38.894V46.238H356.257V32.942H359.617V34.55C360.049 33.99 360.601 33.55 361.273 33.23C361.961 32.91 362.713 32.75 363.529 32.75C364.569 32.75 365.497 32.974 366.313 33.422C367.129 33.854 367.761 34.478 368.209 35.294C368.641 34.526 369.265 33.91 370.081 33.446C370.913 32.982 371.809 32.75 372.769 32.75ZM380.541 39.542C380.541 38.198 380.805 37.006 381.333 35.966C381.877 34.926 382.605 34.126 383.517 33.566C384.445 33.006 385.477 32.726 386.613 32.726C387.605 32.726 388.469 32.926 389.205 33.326C389.957 33.726 390.557 34.23 391.005 34.838V32.942H394.389V46.238H391.005V44.294C390.573 44.918 389.973 45.438 389.205 45.854C388.453 46.254 387.581 46.454 386.589 46.454C385.469 46.454 384.445 46.166 383.517 45.59C382.605 45.014 381.877 44.206 381.333 43.166C380.805 42.11 380.541 40.902 380.541 39.542ZM391.005 39.59C391.005 38.774 390.845 38.078 390.525 37.502C390.205 36.91 389.773 36.462 389.229 36.158C388.685 35.838 388.101 35.678 387.477 35.678C386.853 35.678 386.277 35.83 385.749 36.134C385.221 36.438 384.789 36.886 384.453 37.478C384.133 38.054 383.973 38.742 383.973 39.542C383.973 40.342 384.133 41.046 384.453 41.654C384.789 42.246 385.221 42.702 385.749 43.022C386.293 43.342 386.869 43.502 387.477 43.502C388.101 43.502 388.685 43.35 389.229 43.046C389.773 42.726 390.205 42.278 390.525 41.702C390.845 41.11 391.005 40.406 391.005 39.59ZM399.375 31.358C398.783 31.358 398.287 31.174 397.887 30.806C397.503 30.422 397.311 29.95 397.311 29.39C397.311 28.83 397.503 28.366 397.887 27.998C398.287 27.614 398.783 27.422 399.375 27.422C399.967 27.422 400.455 27.614 400.839 27.998C401.239 28.366 401.439 28.83 401.439 29.39C401.439 29.95 401.239 30.422 400.839 30.806C400.455 31.174 399.967 31.358 399.375 31.358ZM401.031 32.942V46.238H397.671V32.942H401.031ZM407.71 28.478V46.238H404.35V28.478H407.71ZM412.518 46.406C411.91 46.406 411.406 46.222 411.006 45.854C410.622 45.47 410.43 44.998 410.43 44.438C410.43 43.878 410.622 43.414 411.006 43.046C411.406 42.662 411.91 42.47 412.518 42.47C413.11 42.47 413.598 42.662 413.982 43.046C414.366 43.414 414.558 43.878 414.558 44.438C414.558 44.998 414.366 45.47 413.982 45.854C413.598 46.222 413.11 46.406 412.518 46.406ZM416.4 39.59C416.4 38.214 416.68 37.014 417.24 35.99C417.8 34.95 418.576 34.15 419.568 33.59C420.56 33.014 421.696 32.726 422.976 32.726C424.624 32.726 425.984 33.142 427.056 33.974C428.144 34.79 428.872 35.942 429.24 37.43H425.616C425.424 36.854 425.096 36.406 424.632 36.086C424.184 35.75 423.624 35.582 422.952 35.582C421.992 35.582 421.232 35.934 420.672 36.638C420.112 37.326 419.832 38.31 419.832 39.59C419.832 40.854 420.112 41.838 420.672 42.542C421.232 43.23 421.992 43.574 422.952 43.574C424.312 43.574 425.2 42.966 425.616 41.75H429.24C428.872 43.19 428.144 44.334 427.056 45.182C425.968 46.03 424.608 46.454 422.976 46.454C421.696 46.454 420.56 46.174 419.568 45.614C418.576 45.038 417.8 44.238 417.24 43.214C416.68 42.174 416.4 40.966 416.4 39.59ZM437.606 46.454C436.326 46.454 435.174 46.174 434.15 45.614C433.126 45.038 432.318 44.23 431.726 43.19C431.15 42.15 430.862 40.95 430.862 39.59C430.862 38.23 431.158 37.03 431.75 35.99C432.358 34.95 433.182 34.15 434.222 33.59C435.262 33.014 436.422 32.726 437.702 32.726C438.982 32.726 440.142 33.014 441.182 33.59C442.222 34.15 443.038 34.95 443.63 35.99C444.238 37.03 444.542 38.23 444.542 39.59C444.542 40.95 444.23 42.15 443.606 43.19C442.998 44.23 442.166 45.038 441.11 45.614C440.07 46.174 438.902 46.454 437.606 46.454ZM437.606 43.526C438.214 43.526 438.782 43.382 439.31 43.094C439.854 42.79 440.286 42.342 440.606 41.75C440.926 41.158 441.086 40.438 441.086 39.59C441.086 38.326 440.75 37.358 440.078 36.686C439.422 35.998 438.614 35.654 437.654 35.654C436.694 35.654 435.886 35.998 435.23 36.686C434.59 37.358 434.27 38.326 434.27 39.59C434.27 40.854 434.582 41.83 435.206 42.518C435.846 43.19 436.646 43.526 437.606 43.526ZM463.519 32.75C465.151 32.75 466.463 33.254 467.455 34.262C468.463 35.254 468.967 36.646 468.967 38.438V46.238H465.607V38.894C465.607 37.854 465.343 37.062 464.815 36.518C464.287 35.958 463.567 35.678 462.655 35.678C461.743 35.678 461.015 35.958 460.471 36.518C459.943 37.062 459.679 37.854 459.679 38.894V46.238H456.319V38.894C456.319 37.854 456.055 37.062 455.527 36.518C454.999 35.958 454.279 35.678 453.367 35.678C452.439 35.678 451.703 35.958 451.159 36.518C450.631 37.062 450.367 37.854 450.367 38.894V46.238H447.007V32.942H450.367V34.55C450.799 33.99 451.351 33.55 452.023 33.23C452.711 32.91 453.463 32.75 454.279 32.75C455.319 32.75 456.247 32.974 457.063 33.422C457.879 33.854 458.511 34.478 458.959 35.294C459.391 34.526 460.015 33.91 460.831 33.446C461.663 32.982 462.559 32.75 463.519 32.75Z" fill="white"/>
<path d="M36.8579 26.6191H69.6198C71.8722 26.6191 73.7151 28.462 73.7151 30.7144V55.2858C73.7151 57.5382 71.8722 59.381 69.6198 59.381H36.8579C34.6056 59.381 32.7627 57.5382 32.7627 55.2858V30.7144C32.7627 28.462 34.6056 26.6191 36.8579 26.6191Z" stroke="white" stroke-width="3" stroke-linecap="round" stroke-linejoin="round"/>
<path d="M73.7141 30.7144L53.2379 45.0478L32.7617 30.7144" stroke="white" stroke-width="3" stroke-linecap="round" stroke-linejoin="round"/>
</svg>
