<svg width="107" height="107" viewBox="0 0 107 107" fill="none" xmlns="http://www.w3.org/2000/svg">
<path fill-rule="evenodd" clip-rule="evenodd" d="M19.6955 94.5704L38.2738 62.3901L63.4445 105.922C60.2749 106.512 57.0076 106.818 53.6648 106.818C40.7598 106.818 28.9159 102.219 19.6955 94.5704V94.5704ZM103.908 71.2776C98.6612 86.1269 87.0126 97.9664 72.2831 103.471L53.6959 71.2776H103.908ZM38.2694 44.6419L13.1609 88.1335C5.20128 78.8243 0.393555 66.7406 0.393555 53.5471C0.393555 50.5107 0.646593 47.5363 1.13491 44.6419H38.2694ZM94.1287 18.9164C102.111 28.23 106.936 40.3314 106.936 53.5471C106.936 56.5614 106.683 59.5179 106.204 62.399H69.0335L94.1287 18.9164V18.9164ZM43.9428 1.16373C47.0947 0.582189 50.3442 0.275879 53.6648 0.275879C66.552 0.275879 78.3738 4.86164 87.5897 12.4883L69.0335 44.6286L43.9428 1.16373V1.16373ZM53.6648 35.7634H3.43889C8.70387 20.9185 20.3614 9.09227 35.0998 3.60533L53.6648 35.7634Z" fill="white"/>
</svg>
