<svg width="27" height="22" viewBox="0 0 27 22" fill="none" xmlns="http://www.w3.org/2000/svg">
<path d="M26.7784 2.91569C25.8259 3.33855 24.8022 3.62333 23.7278 3.7517C24.8249 3.09476 25.6673 2.05379 26.0632 0.813266C25.0374 1.42166 23.9004 1.86394 22.6901 2.10234C21.7225 1.07 20.3406 0.424927 18.8132 0.424927C15.3839 0.424927 12.864 3.62441 13.6385 6.94579C9.2255 6.72465 5.31191 4.61036 2.6917 1.39685C1.30015 3.78406 1.97004 6.90695 4.33459 8.48836C3.46514 8.46031 2.64532 8.22191 1.93012 7.82386C1.87187 10.2844 3.63558 12.5864 6.18999 13.0988C5.44244 13.3016 4.62369 13.3491 3.79092 13.1894C4.46619 15.2994 6.42731 16.8344 8.75303 16.8776C6.52008 18.6283 3.70678 19.4104 0.88916 19.0781C3.23969 20.5851 6.03249 21.4643 9.03133 21.4643C18.893 21.4643 24.4646 13.1355 24.128 5.66535C25.1657 4.91564 26.0665 3.98039 26.7784 2.91569Z" fill="white"/>
</svg>
