<svg width="42" height="39" viewBox="0 0 42 39" fill="none" xmlns="http://www.w3.org/2000/svg">
<path d="M8.388 15.26C9.108 14.156 10.008 13.292 11.088 12.668C12.168 12.02 13.368 11.696 14.688 11.696V18.212H12.996C11.46 18.212 10.308 18.548 9.54 19.22C8.772 19.868 8.388 21.02 8.388 22.676V32H2.232V11.912H8.388V15.26Z" fill="white"/>
<path d="M40.428 26.78V32H37.296C35.064 32 33.324 31.46 32.076 30.38C30.828 29.276 30.204 27.488 30.204 25.016V17.024H27.756V11.912H30.204V7.016H36.36V11.912H40.392V17.024H36.36V25.088C36.36 25.688 36.504 26.12 36.792 26.384C37.08 26.648 37.56 26.78 38.232 26.78H40.428Z" fill="white"/>
<rect x="21" y="6" width="1" height="28" fill="white"/>
</svg>
