<svg width="627" height="86" viewBox="0 0 627 86" fill="none" xmlns="http://www.w3.org/2000/svg">
<rect x="0.5" y="0.5" width="625.571" height="85" stroke="white"/>
<rect x="0.5" y="0.5" width="103.429" height="85" stroke="white"/>
<path d="M130.315 37.9294C130.847 37.031 131.366 36.3943 131.874 36.0193C132.39 35.6443 132.987 35.4568 133.667 35.4568C133.87 35.4568 134.073 35.4763 134.276 35.5154C134.487 35.5544 134.694 35.6091 134.897 35.6794L134.429 37.0388C134.272 36.9919 134.108 36.9529 133.937 36.9216C133.772 36.8904 133.612 36.8748 133.456 36.8748C132.589 36.8748 131.847 37.281 131.229 38.0935C130.62 38.906 130.315 39.9177 130.315 41.1287V46.238H128.874V35.8435H130.315V37.9294ZM143.663 39.8513C143.593 38.8982 143.276 38.1599 142.714 37.6365C142.151 37.113 141.39 36.8513 140.429 36.8513C139.554 36.8513 138.819 37.1248 138.226 37.6716C137.64 38.2185 137.3 38.9451 137.206 39.8513H143.663ZM145.374 41.0818H137.112C137.151 42.4255 137.487 43.4802 138.12 44.2458C138.753 45.0115 139.601 45.3943 140.663 45.3943C141.429 45.3943 142.101 45.1873 142.679 44.7732C143.257 44.3591 143.737 43.7341 144.12 42.8982L145.444 43.6248C144.913 44.6794 144.261 45.4568 143.487 45.9568C142.722 46.449 141.78 46.6951 140.663 46.6951C139.14 46.6951 137.905 46.1873 136.96 45.1716C136.022 44.1482 135.554 42.8083 135.554 41.1521C135.554 39.449 136.019 38.074 136.948 37.0271C137.886 35.9802 139.108 35.4568 140.616 35.4568C142.054 35.4568 143.206 35.9412 144.073 36.9099C144.94 37.8708 145.374 39.156 145.374 40.7654V41.0818ZM146.956 35.8435H148.491L151.468 43.9763L154.21 35.8435H155.745L150.366 51.4646H148.878L150.694 46.1677L146.956 35.8435ZM158.054 46.238V28.074H159.425V37.449C159.847 36.7849 160.362 36.2888 160.972 35.9607C161.589 35.6248 162.296 35.4568 163.093 35.4568C164.272 35.4568 165.19 35.7849 165.847 36.4412C166.503 37.0974 166.831 38.0115 166.831 39.1833V46.238H165.366V39.8279C165.366 38.7888 165.147 38.0193 164.71 37.5193C164.28 37.0115 163.612 36.7576 162.706 36.7576C161.604 36.7576 160.792 37.0857 160.269 37.7419C159.753 38.3904 159.495 39.4138 159.495 40.8123V46.238H158.054ZM171.237 41.1521C171.237 42.4958 171.538 43.531 172.14 44.2576C172.749 44.9841 173.616 45.3474 174.741 45.3474C175.835 45.3474 176.694 44.9529 177.319 44.1638C177.952 43.3669 178.269 42.2732 178.269 40.8826C178.269 39.6091 177.956 38.6091 177.331 37.8826C176.706 37.1482 175.851 36.781 174.765 36.781C173.679 36.781 172.819 37.1716 172.187 37.9529C171.554 38.7263 171.237 39.7927 171.237 41.1521ZM178.245 46.238V44.3396C177.901 45.1052 177.417 45.6912 176.792 46.0974C176.175 46.4958 175.444 46.6951 174.601 46.6951C173.108 46.6951 171.905 46.1833 170.991 45.1599C170.085 44.1365 169.632 42.7849 169.632 41.1052C169.632 39.4412 170.081 38.0857 170.979 37.0388C171.878 35.9841 173.038 35.4568 174.46 35.4568C175.343 35.4568 176.104 35.6521 176.745 36.0427C177.394 36.4255 177.894 36.9919 178.245 37.7419V35.8435H179.687V46.238H178.245ZM183.554 46.238V35.8435H184.925V37.449C185.347 36.7849 185.862 36.2888 186.472 35.9607C187.089 35.6248 187.796 35.4568 188.593 35.4568C189.772 35.4568 190.69 35.7849 191.347 36.4412C192.003 37.0974 192.331 38.0115 192.331 39.1833V46.238H190.866V39.8279C190.866 38.7888 190.647 38.0193 190.21 37.5193C189.78 37.0115 189.112 36.7576 188.206 36.7576C187.104 36.7576 186.292 37.0857 185.769 37.7419C185.253 38.3904 184.995 39.4138 184.995 40.8123V46.238H183.554ZM196.374 37.074H194.464V35.8435H196.374V31.5779H197.792V35.8435H199.878V37.074H197.792V46.238H196.374V37.074ZM202.69 41.1521C202.69 42.4958 202.991 43.531 203.593 44.2576C204.202 44.9841 205.069 45.3474 206.194 45.3474C207.288 45.3474 208.147 44.9529 208.772 44.1638C209.405 43.3669 209.722 42.2732 209.722 40.8826C209.722 39.6091 209.409 38.6091 208.784 37.8826C208.159 37.1482 207.304 36.781 206.218 36.781C205.132 36.781 204.272 37.1716 203.64 37.9529C203.007 38.7263 202.69 39.7927 202.69 41.1521ZM209.698 46.238V44.3396C209.354 45.1052 208.87 45.6912 208.245 46.0974C207.628 46.4958 206.897 46.6951 206.054 46.6951C204.562 46.6951 203.358 46.1833 202.444 45.1599C201.538 44.1365 201.085 42.7849 201.085 41.1052C201.085 39.4412 201.534 38.0857 202.433 37.0388C203.331 35.9841 204.491 35.4568 205.913 35.4568C206.796 35.4568 207.558 35.6521 208.198 36.0427C208.847 36.4255 209.347 36.9919 209.698 37.7419V35.8435H211.14V46.238H209.698ZM216.448 46.238H215.007V35.8435H216.448V37.4724C216.792 36.8162 217.245 36.3162 217.808 35.9724C218.37 35.6287 219.019 35.4568 219.753 35.4568C220.511 35.4568 221.155 35.6326 221.687 35.9841C222.226 36.3279 222.64 36.8357 222.929 37.5076C223.343 36.8201 223.851 36.3083 224.452 35.9724C225.054 35.6287 225.753 35.4568 226.55 35.4568C227.651 35.4568 228.519 35.7927 229.151 36.4646C229.784 37.1287 230.101 38.0427 230.101 39.2068V46.238H228.659V39.781C228.659 38.7654 228.448 37.9998 228.026 37.4841C227.612 36.9685 226.991 36.7107 226.163 36.7107C225.171 36.7107 224.44 37.0349 223.972 37.6833C223.511 38.3318 223.28 39.3591 223.28 40.7654V46.238H221.851V39.781C221.851 38.7185 221.651 37.9412 221.253 37.449C220.854 36.9568 220.237 36.7107 219.401 36.7107C218.386 36.7107 217.64 37.0388 217.163 37.6951C216.687 38.3513 216.448 39.3748 216.448 40.7654V46.238ZM234.612 41.1521C234.612 42.4958 234.913 43.531 235.515 44.2576C236.124 44.9841 236.991 45.3474 238.116 45.3474C239.21 45.3474 240.069 44.9529 240.694 44.1638C241.327 43.3669 241.644 42.2732 241.644 40.8826C241.644 39.6091 241.331 38.6091 240.706 37.8826C240.081 37.1482 239.226 36.781 238.14 36.781C237.054 36.781 236.194 37.1716 235.562 37.9529C234.929 38.7263 234.612 39.7927 234.612 41.1521ZM241.62 46.238V44.3396C241.276 45.1052 240.792 45.6912 240.167 46.0974C239.55 46.4958 238.819 46.6951 237.976 46.6951C236.483 46.6951 235.28 46.1833 234.366 45.1599C233.46 44.1365 233.007 42.7849 233.007 41.1052C233.007 39.4412 233.456 38.0857 234.354 37.0388C235.253 35.9841 236.413 35.4568 237.835 35.4568C238.718 35.4568 239.479 35.6521 240.12 36.0427C240.769 36.4255 241.269 36.9919 241.62 37.7419V35.8435H243.062V46.238H241.62ZM246.929 46.238V35.8435H248.3V37.449C248.722 36.7849 249.237 36.2888 249.847 35.9607C250.464 35.6248 251.171 35.4568 251.968 35.4568C253.147 35.4568 254.065 35.7849 254.722 36.4412C255.378 37.0974 255.706 38.0115 255.706 39.1833V46.238H254.241V39.8279C254.241 38.7888 254.022 38.0193 253.585 37.5193C253.155 37.0115 252.487 36.7576 251.581 36.7576C250.479 36.7576 249.667 37.0857 249.144 37.7419C248.628 38.3904 248.37 39.4138 248.37 40.8123V46.238H246.929ZM268.585 35.8435V44.4333C268.585 45.8005 268.546 46.8435 268.468 47.5623C268.397 48.281 268.276 48.8162 268.104 49.1677C267.745 49.9412 267.194 50.5154 266.452 50.8904C265.71 51.2732 264.772 51.4646 263.64 51.4646C262.257 51.4646 261.179 51.1951 260.405 50.656C259.64 50.1248 259.175 49.3162 259.011 48.2302H260.815C260.933 48.8708 261.237 49.3552 261.729 49.6833C262.229 50.0115 262.905 50.1755 263.757 50.1755C264.397 50.1755 264.972 50.0623 265.479 49.8357C265.995 49.6091 266.382 49.2966 266.64 48.8982C266.812 48.6404 266.933 48.3396 267.003 47.9958C267.081 47.6599 267.12 47.1365 267.12 46.4255V45.8748V44.3162C266.8 45.0583 266.308 45.6404 265.644 46.0623C264.987 46.4841 264.233 46.6951 263.382 46.6951C261.921 46.6951 260.753 46.1873 259.878 45.1716C259.011 44.156 258.577 42.7927 258.577 41.0818C258.577 39.3865 259.022 38.0271 259.913 37.0037C260.804 35.9724 261.983 35.4568 263.452 35.4568C264.272 35.4568 265.015 35.6716 265.679 36.1013C266.351 36.5232 266.831 37.0857 267.12 37.7888V35.8435H268.585ZM263.616 36.781C262.538 36.781 261.687 37.1677 261.062 37.9412C260.444 38.7068 260.136 39.7615 260.136 41.1052C260.136 42.4412 260.429 43.4841 261.015 44.2341C261.608 44.9763 262.429 45.3474 263.476 45.3474C264.585 45.3474 265.472 44.9529 266.136 44.1638C266.808 43.3748 267.144 42.3123 267.144 40.9763C267.144 39.6638 266.831 38.6365 266.206 37.8943C265.581 37.1521 264.718 36.781 263.616 36.781ZM285.776 36.5466L286.491 35.0349H287.429L285.823 41.5154C285.745 41.7966 285.683 42.0505 285.636 42.2771C285.597 42.4958 285.577 42.6638 285.577 42.781C285.577 43.1248 285.694 43.3904 285.929 43.5779C286.171 43.7654 286.511 43.8591 286.948 43.8591C287.323 43.8591 287.714 43.7849 288.12 43.6365C288.526 43.4802 288.929 43.2576 289.327 42.9685C290.116 42.3904 290.749 41.5818 291.226 40.5427C291.702 39.5037 291.94 38.4021 291.94 37.238C291.94 35.1052 291.159 33.3904 289.597 32.0935C288.042 30.7888 285.991 30.1365 283.444 30.1365C282.132 30.1365 280.917 30.324 279.8 30.699C278.69 31.074 277.683 31.6365 276.776 32.3865C275.573 33.3865 274.667 34.5466 274.058 35.8669C273.448 37.1873 273.144 38.6521 273.144 40.2615C273.144 42.8162 274.007 44.8552 275.733 46.3787C277.468 47.9021 279.78 48.6638 282.671 48.6638C283.929 48.6638 285.194 48.4646 286.468 48.0662C287.741 47.6755 288.909 47.1208 289.972 46.4021L290.312 46.9294C289.171 47.7888 287.964 48.4333 286.69 48.863C285.425 49.2927 284.101 49.5076 282.718 49.5076C281.257 49.5076 279.917 49.324 278.698 48.9568C277.479 48.5974 276.397 48.0583 275.452 47.3396C274.265 46.4412 273.378 45.3982 272.792 44.2107C272.214 43.0154 271.925 41.6521 271.925 40.1208C271.925 38.8552 272.12 37.656 272.511 36.5232C272.909 35.3904 273.487 34.3552 274.245 33.4177C275.37 32.0505 276.718 31.0154 278.288 30.3123C279.866 29.6013 281.624 29.2458 283.562 29.2458C284.812 29.2458 285.999 29.4177 287.124 29.7615C288.257 30.1052 289.229 30.5896 290.042 31.2146C291.042 31.9802 291.8 32.8669 292.315 33.8748C292.831 34.8748 293.089 35.9568 293.089 37.1208C293.089 38.4412 292.843 39.6443 292.351 40.7302C291.858 41.8162 291.151 42.7224 290.229 43.449C289.706 43.8708 289.136 44.1951 288.519 44.4216C287.909 44.6404 287.288 44.7498 286.655 44.7498C285.913 44.7498 285.351 44.6091 284.968 44.3279C284.593 44.0388 284.405 43.613 284.405 43.0505C284.405 42.9568 284.417 42.824 284.44 42.6521C284.448 42.6287 284.452 42.6091 284.452 42.5935C284.069 43.281 283.581 43.8123 282.987 44.1873C282.394 44.5623 281.745 44.7498 281.042 44.7498C279.839 44.7498 278.925 44.4255 278.3 43.7771C277.683 43.1287 277.374 42.1794 277.374 40.9294C277.374 39.1482 277.897 37.6404 278.944 36.406C279.999 35.1716 281.276 34.5544 282.776 34.5544C283.519 34.5544 284.144 34.7224 284.651 35.0583C285.159 35.3943 285.534 35.8904 285.776 36.5466ZM284.792 40.7654L285.53 37.7888C285.358 37.0154 285.038 36.4255 284.569 36.0193C284.108 35.613 283.519 35.4099 282.8 35.4099C281.612 35.4099 280.612 35.949 279.8 37.0271C278.995 38.1052 278.593 39.4333 278.593 41.0115C278.593 41.9099 278.815 42.613 279.261 43.1208C279.714 43.6287 280.339 43.8826 281.136 43.8826C282.003 43.8826 282.769 43.6013 283.433 43.0388C284.097 42.4685 284.55 41.7107 284.792 40.7654ZM305.569 35.8435V44.4333C305.569 45.8005 305.53 46.8435 305.452 47.5623C305.382 48.281 305.261 48.8162 305.089 49.1677C304.729 49.9412 304.179 50.5154 303.437 50.8904C302.694 51.2732 301.757 51.4646 300.624 51.4646C299.241 51.4646 298.163 51.1951 297.39 50.656C296.624 50.1248 296.159 49.3162 295.995 48.2302H297.8C297.917 48.8708 298.222 49.3552 298.714 49.6833C299.214 50.0115 299.89 50.1755 300.741 50.1755C301.382 50.1755 301.956 50.0623 302.464 49.8357C302.979 49.6091 303.366 49.2966 303.624 48.8982C303.796 48.6404 303.917 48.3396 303.987 47.9958C304.065 47.6599 304.104 47.1365 304.104 46.4255V45.8748V44.3162C303.784 45.0583 303.292 45.6404 302.628 46.0623C301.972 46.4841 301.218 46.6951 300.366 46.6951C298.905 46.6951 297.737 46.1873 296.862 45.1716C295.995 44.156 295.562 42.7927 295.562 41.0818C295.562 39.3865 296.007 38.0271 296.897 37.0037C297.788 35.9724 298.968 35.4568 300.437 35.4568C301.257 35.4568 301.999 35.6716 302.663 36.1013C303.335 36.5232 303.815 37.0857 304.104 37.7888V35.8435H305.569ZM300.601 36.781C299.522 36.781 298.671 37.1677 298.046 37.9412C297.429 38.7068 297.12 39.7615 297.12 41.1052C297.12 42.4412 297.413 43.4841 297.999 44.2341C298.593 44.9763 299.413 45.3474 300.46 45.3474C301.569 45.3474 302.456 44.9529 303.12 44.1638C303.792 43.3748 304.128 42.3123 304.128 40.9763C304.128 39.6638 303.815 38.6365 303.19 37.8943C302.565 37.1521 301.702 36.781 300.601 36.781ZM310.854 46.238H309.413V35.8435H310.854V37.4724C311.198 36.8162 311.651 36.3162 312.214 35.9724C312.776 35.6287 313.425 35.4568 314.159 35.4568C314.917 35.4568 315.562 35.6326 316.093 35.9841C316.632 36.3279 317.046 36.8357 317.335 37.5076C317.749 36.8201 318.257 36.3083 318.858 35.9724C319.46 35.6287 320.159 35.4568 320.956 35.4568C322.058 35.4568 322.925 35.7927 323.558 36.4646C324.19 37.1287 324.507 38.0427 324.507 39.2068V46.238H323.065V39.781C323.065 38.7654 322.854 37.9998 322.433 37.4841C322.019 36.9685 321.397 36.7107 320.569 36.7107C319.577 36.7107 318.847 37.0349 318.378 37.6833C317.917 38.3318 317.687 39.3591 317.687 40.7654V46.238H316.257V39.781C316.257 38.7185 316.058 37.9412 315.659 37.449C315.261 36.9568 314.644 36.7107 313.808 36.7107C312.792 36.7107 312.046 37.0388 311.569 37.6951C311.093 38.3513 310.854 39.3748 310.854 40.7654V46.238ZM329.019 41.1521C329.019 42.4958 329.319 43.531 329.921 44.2576C330.53 44.9841 331.397 45.3474 332.522 45.3474C333.616 45.3474 334.476 44.9529 335.101 44.1638C335.733 43.3669 336.05 42.2732 336.05 40.8826C336.05 39.6091 335.737 38.6091 335.112 37.8826C334.487 37.1482 333.632 36.781 332.546 36.781C331.46 36.781 330.601 37.1716 329.968 37.9529C329.335 38.7263 329.019 39.7927 329.019 41.1521ZM336.026 46.238V44.3396C335.683 45.1052 335.198 45.6912 334.573 46.0974C333.956 46.4958 333.226 46.6951 332.382 46.6951C330.89 46.6951 329.687 46.1833 328.772 45.1599C327.866 44.1365 327.413 42.7849 327.413 41.1052C327.413 39.4412 327.862 38.0857 328.761 37.0388C329.659 35.9841 330.819 35.4568 332.241 35.4568C333.124 35.4568 333.886 35.6521 334.526 36.0427C335.175 36.4255 335.675 36.9919 336.026 37.7419V35.8435H337.468V46.238H336.026ZM341.065 31.7888C341.065 31.4841 341.175 31.2263 341.394 31.0154C341.612 30.7966 341.874 30.6873 342.179 30.6873C342.483 30.6873 342.745 30.7966 342.964 31.0154C343.19 31.2263 343.304 31.4841 343.304 31.7888C343.304 32.1013 343.194 32.363 342.976 32.574C342.765 32.7849 342.499 32.8904 342.179 32.8904C341.866 32.8904 341.601 32.7849 341.382 32.574C341.171 32.363 341.065 32.1013 341.065 31.7888ZM341.429 46.238V35.8435H342.917V46.238H341.429ZM348.448 46.238H346.96V28.074H348.448V46.238ZM352.737 45.2537C352.737 44.9177 352.851 44.6365 353.077 44.4099C353.312 44.1755 353.597 44.0583 353.933 44.0583C354.269 44.0583 354.55 44.1755 354.776 44.4099C355.011 44.6365 355.128 44.9177 355.128 45.2537C355.128 45.5896 355.011 45.8748 354.776 46.1091C354.55 46.3357 354.269 46.449 353.933 46.449C353.597 46.449 353.312 46.3357 353.077 46.1091C352.851 45.8748 352.737 45.5896 352.737 45.2537ZM367.397 37.7419C366.913 37.406 366.397 37.156 365.851 36.9919C365.304 36.8201 364.741 36.7341 364.163 36.7341C362.874 36.7341 361.847 37.1482 361.081 37.9763C360.315 38.7966 359.933 39.8943 359.933 41.2693C359.933 42.488 360.327 43.4919 361.116 44.281C361.913 45.0701 362.929 45.4646 364.163 45.4646C364.726 45.4646 365.292 45.3669 365.862 45.1716C366.44 44.9763 367.007 44.6833 367.562 44.2927V45.8748C367.054 46.1638 366.491 46.3787 365.874 46.5193C365.257 46.6677 364.597 46.7419 363.894 46.7419C362.308 46.7419 361.007 46.2224 359.991 45.1833C358.976 44.1365 358.468 42.8005 358.468 41.1755C358.468 39.4802 358.995 38.1052 360.05 37.0505C361.112 35.988 362.491 35.4568 364.187 35.4568C364.812 35.4568 365.397 35.5193 365.944 35.6443C366.499 35.7615 366.991 35.9333 367.421 36.1599L367.397 37.7419ZM375.026 45.3474C376.167 45.3474 377.132 44.9373 377.921 44.1169C378.718 43.2888 379.116 42.2771 379.116 41.0818C379.116 39.8708 378.722 38.8552 377.933 38.0349C377.144 37.2146 376.175 36.8044 375.026 36.8044C373.886 36.8044 372.921 37.2146 372.132 38.0349C371.343 38.8552 370.948 39.8708 370.948 41.0818C370.948 42.2771 371.343 43.2888 372.132 44.1169C372.921 44.9373 373.886 45.3474 375.026 45.3474ZM374.979 46.6951C374.237 46.6951 373.526 46.5466 372.847 46.2498C372.167 45.9607 371.55 45.5427 370.995 44.9958C370.472 44.4802 370.073 43.8865 369.8 43.2146C369.526 42.5427 369.39 41.824 369.39 41.0583C369.39 40.3005 369.53 39.5818 369.812 38.9021C370.093 38.2224 370.495 37.6208 371.019 37.0974C371.55 36.5662 372.155 36.1599 372.835 35.8787C373.515 35.5974 374.229 35.4568 374.979 35.4568C375.745 35.4568 376.472 35.5974 377.159 35.8787C377.854 36.1599 378.472 36.5662 379.011 37.0974C379.55 37.6287 379.96 38.2341 380.241 38.9138C380.53 39.5935 380.675 40.3083 380.675 41.0583C380.675 41.8083 380.534 42.5232 380.253 43.2029C379.972 43.8748 379.565 44.4724 379.034 44.9958C378.487 45.5427 377.862 45.9607 377.159 46.2498C376.464 46.5466 375.737 46.6951 374.979 46.6951ZM385.104 46.238H383.663V35.8435H385.104V37.4724C385.448 36.8162 385.901 36.3162 386.464 35.9724C387.026 35.6287 387.675 35.4568 388.409 35.4568C389.167 35.4568 389.812 35.6326 390.343 35.9841C390.882 36.3279 391.296 36.8357 391.585 37.5076C391.999 36.8201 392.507 36.3083 393.108 35.9724C393.71 35.6287 394.409 35.4568 395.206 35.4568C396.308 35.4568 397.175 35.7927 397.808 36.4646C398.44 37.1287 398.757 38.0427 398.757 39.2068V46.238H397.315V39.781C397.315 38.7654 397.104 37.9998 396.683 37.4841C396.269 36.9685 395.647 36.7107 394.819 36.7107C393.827 36.7107 393.097 37.0349 392.628 37.6833C392.167 38.3318 391.937 39.3591 391.937 40.7654V46.238H390.507V39.781C390.507 38.7185 390.308 37.9412 389.909 37.449C389.511 36.9568 388.894 36.7107 388.058 36.7107C387.042 36.7107 386.296 37.0388 385.819 37.6951C385.343 38.3513 385.104 39.3748 385.104 40.7654V46.238Z" fill="white"/>
<path d="M36.8579 26.6191H69.6198C71.8722 26.6191 73.7151 28.462 73.7151 30.7144V55.2858C73.7151 57.5382 71.8722 59.381 69.6198 59.381H36.8579C34.6056 59.381 32.7627 57.5382 32.7627 55.2858V30.7144C32.7627 28.462 34.6056 26.6191 36.8579 26.6191Z" stroke="white" stroke-width="3" stroke-linecap="round" stroke-linejoin="round"/>
<path d="M73.7141 30.7144L53.2379 45.0478L32.7617 30.7144" stroke="white" stroke-width="3" stroke-linecap="round" stroke-linejoin="round"/>
</svg>
