<svg width="147" height="62" viewBox="0 0 147 62" fill="none" xmlns="http://www.w3.org/2000/svg">
<path d="M24.4521 50.7314L24.9883 49.5977H25.6914L24.4873 54.458C24.4287 54.6689 24.3818 54.8594 24.3467 55.0293C24.3174 55.1934 24.3027 55.3193 24.3027 55.4072C24.3027 55.665 24.3906 55.8643 24.5664 56.0049C24.748 56.1455 25.0029 56.2158 25.3311 56.2158C25.6123 56.2158 25.9053 56.1602 26.21 56.0488C26.5146 55.9316 26.8164 55.7646 27.1152 55.5479C27.707 55.1143 28.1816 54.5078 28.5391 53.7285C28.8965 52.9492 29.0752 52.123 29.0752 51.25C29.0752 49.6504 28.4893 48.3643 27.3174 47.3916C26.1514 46.4131 24.6133 45.9238 22.7031 45.9238C21.7188 45.9238 20.8076 46.0645 19.9697 46.3457C19.1377 46.627 18.3818 47.0488 17.7021 47.6113C16.7998 48.3613 16.1201 49.2314 15.6631 50.2217C15.2061 51.2119 14.9775 52.3105 14.9775 53.5176C14.9775 55.4336 15.625 56.9629 16.9199 58.1055C18.2207 59.248 19.9551 59.8193 22.123 59.8193C23.0664 59.8193 24.0156 59.6699 24.9707 59.3711C25.9258 59.0781 26.8018 58.6621 27.5986 58.123L27.8535 58.5186C26.998 59.1631 26.0928 59.6465 25.1377 59.9688C24.1885 60.291 23.1953 60.4521 22.1582 60.4521C21.0625 60.4521 20.0576 60.3145 19.1436 60.0391C18.2295 59.7695 17.418 59.3652 16.709 58.8262C15.8184 58.1523 15.1533 57.3701 14.7139 56.4795C14.2803 55.583 14.0635 54.5605 14.0635 53.4121C14.0635 52.4629 14.21 51.5635 14.5029 50.7139C14.8018 49.8643 15.2354 49.0879 15.8037 48.3848C16.6475 47.3594 17.6582 46.583 18.8359 46.0557C20.0195 45.5225 21.3379 45.2559 22.791 45.2559C23.7285 45.2559 24.6191 45.3848 25.4629 45.6426C26.3125 45.9004 27.042 46.2637 27.6514 46.7324C28.4014 47.3066 28.9697 47.9717 29.3564 48.7275C29.7432 49.4775 29.9365 50.2891 29.9365 51.1621C29.9365 52.1523 29.752 53.0547 29.3828 53.8691C29.0137 54.6836 28.4834 55.3633 27.792 55.9082C27.3994 56.2246 26.9717 56.4678 26.5088 56.6377C26.0518 56.8018 25.5859 56.8838 25.1113 56.8838C24.5547 56.8838 24.1328 56.7783 23.8457 56.5674C23.5645 56.3506 23.4238 56.0312 23.4238 55.6094C23.4238 55.5391 23.4326 55.4395 23.4502 55.3105C23.4561 55.293 23.459 55.2783 23.459 55.2666C23.1719 55.7822 22.8057 56.1807 22.3604 56.4619C21.915 56.7432 21.4287 56.8838 20.9014 56.8838C19.999 56.8838 19.3135 56.6406 18.8447 56.1543C18.3818 55.668 18.1504 54.9561 18.1504 54.0186C18.1504 52.6826 18.543 51.5518 19.3281 50.626C20.1191 49.7002 21.0771 49.2373 22.2021 49.2373C22.7588 49.2373 23.2275 49.3633 23.6084 49.6152C23.9893 49.8672 24.2705 50.2393 24.4521 50.7314ZM23.7139 53.8955L24.2676 51.6631C24.1387 51.083 23.8984 50.6406 23.5469 50.3359C23.2012 50.0312 22.7588 49.8789 22.2197 49.8789C21.3291 49.8789 20.5791 50.2832 19.9697 51.0918C19.3662 51.9004 19.0645 52.8965 19.0645 54.0801C19.0645 54.7539 19.2314 55.2812 19.5654 55.6621C19.9053 56.043 20.374 56.2334 20.9717 56.2334C21.6221 56.2334 22.1963 56.0225 22.6943 55.6006C23.1924 55.1729 23.5322 54.6045 23.7139 53.8955ZM33.5225 51.7686C33.9209 51.0947 34.3105 50.6172 34.6914 50.3359C35.0781 50.0547 35.5264 49.9141 36.0361 49.9141C36.1885 49.9141 36.3408 49.9287 36.4932 49.958C36.6514 49.9873 36.8066 50.0283 36.959 50.0811L36.6074 51.1006C36.4902 51.0654 36.3672 51.0361 36.2383 51.0127C36.1152 50.9893 35.9951 50.9775 35.8779 50.9775C35.2275 50.9775 34.6709 51.2822 34.208 51.8916C33.751 52.501 33.5225 53.2598 33.5225 54.168V58H32.4414V50.2041H33.5225V51.7686ZM43.5332 53.21C43.4805 52.4951 43.2432 51.9414 42.8213 51.5488C42.3994 51.1562 41.8281 50.96 41.1074 50.96C40.4512 50.96 39.9004 51.165 39.4551 51.5752C39.0156 51.9854 38.7607 52.5303 38.6904 53.21H43.5332ZM44.8164 54.1328H38.6201C38.6494 55.1406 38.9014 55.9316 39.376 56.5059C39.8506 57.0801 40.4863 57.3672 41.2832 57.3672C41.8574 57.3672 42.3613 57.2119 42.7949 56.9014C43.2285 56.5908 43.5889 56.1221 43.876 55.4951L44.8691 56.04C44.4707 56.8311 43.9814 57.4141 43.4014 57.7891C42.8271 58.1582 42.1211 58.3428 41.2832 58.3428C40.1406 58.3428 39.2148 57.9619 38.5059 57.2002C37.8027 56.4326 37.4512 55.4277 37.4512 54.1855C37.4512 52.9082 37.7998 51.877 38.4971 51.0918C39.2002 50.3066 40.1172 49.9141 41.248 49.9141C42.3262 49.9141 43.1904 50.2773 43.8408 51.0039C44.4912 51.7246 44.8164 52.6885 44.8164 53.8955V54.1328ZM46.0029 50.2041H47.1543L49.3867 56.3037L51.4434 50.2041H52.5947L48.5605 61.9199H47.4443L48.8066 57.9473L46.0029 50.2041ZM54.3262 58V44.377H55.3545V51.4082C55.6709 50.9102 56.0576 50.5381 56.5146 50.292C56.9775 50.04 57.5078 49.9141 58.1055 49.9141C58.9902 49.9141 59.6787 50.1602 60.1709 50.6523C60.6631 51.1445 60.9092 51.8301 60.9092 52.709V58H59.8105V53.1924C59.8105 52.4131 59.6465 51.8359 59.3184 51.4609C58.9961 51.0801 58.4951 50.8896 57.8154 50.8896C56.9893 50.8896 56.3799 51.1357 55.9873 51.6279C55.6006 52.1143 55.4072 52.8818 55.4072 53.9307V58H54.3262ZM64.2139 54.1855C64.2139 55.1934 64.4395 55.9697 64.8906 56.5146C65.3477 57.0596 65.998 57.332 66.8418 57.332C67.6621 57.332 68.3066 57.0361 68.7754 56.4443C69.25 55.8467 69.4873 55.0264 69.4873 53.9834C69.4873 53.0283 69.2529 52.2783 68.7842 51.7334C68.3154 51.1826 67.6738 50.9072 66.8594 50.9072C66.0449 50.9072 65.4004 51.2002 64.9258 51.7861C64.4512 52.3662 64.2139 53.166 64.2139 54.1855ZM69.4697 58V56.5762C69.2119 57.1504 68.8486 57.5898 68.3799 57.8945C67.917 58.1934 67.3691 58.3428 66.7363 58.3428C65.6172 58.3428 64.7148 57.959 64.0293 57.1914C63.3496 56.4238 63.0098 55.4102 63.0098 54.1504C63.0098 52.9023 63.3467 51.8857 64.0205 51.1006C64.6943 50.3096 65.5645 49.9141 66.6309 49.9141C67.293 49.9141 67.8643 50.0605 68.3447 50.3535C68.8311 50.6406 69.2061 51.0654 69.4697 51.6279V50.2041H70.5508V58H69.4697ZM73.4512 58V50.2041H74.4795V51.4082C74.7959 50.9102 75.1826 50.5381 75.6396 50.292C76.1025 50.04 76.6328 49.9141 77.2305 49.9141C78.1152 49.9141 78.8037 50.1602 79.2959 50.6523C79.7881 51.1445 80.0342 51.8301 80.0342 52.709V58H78.9355V53.1924C78.9355 52.4131 78.7715 51.8359 78.4434 51.4609C78.1211 51.0801 77.6201 50.8896 76.9404 50.8896C76.1143 50.8896 75.5049 51.1357 75.1123 51.6279C74.7256 52.1143 74.5322 52.8818 74.5322 53.9307V58H73.4512ZM83.0664 51.127H81.6338V50.2041H83.0664V47.0049H84.1299V50.2041H85.6943V51.127H84.1299V58H83.0664V51.127ZM87.8037 54.1855C87.8037 55.1934 88.0293 55.9697 88.4805 56.5146C88.9375 57.0596 89.5879 57.332 90.4316 57.332C91.252 57.332 91.8965 57.0361 92.3652 56.4443C92.8398 55.8467 93.0771 55.0264 93.0771 53.9834C93.0771 53.0283 92.8428 52.2783 92.374 51.7334C91.9053 51.1826 91.2637 50.9072 90.4492 50.9072C89.6348 50.9072 88.9902 51.2002 88.5156 51.7861C88.041 52.3662 87.8037 53.166 87.8037 54.1855ZM93.0596 58V56.5762C92.8018 57.1504 92.4385 57.5898 91.9697 57.8945C91.5068 58.1934 90.959 58.3428 90.3262 58.3428C89.207 58.3428 88.3047 57.959 87.6191 57.1914C86.9395 56.4238 86.5996 55.4102 86.5996 54.1504C86.5996 52.9023 86.9365 51.8857 87.6104 51.1006C88.2842 50.3096 89.1543 49.9141 90.2207 49.9141C90.8828 49.9141 91.4541 50.0605 91.9346 50.3535C92.4209 50.6406 92.7959 51.0654 93.0596 51.6279V50.2041H94.1406V58H93.0596ZM98.1221 58H97.041V50.2041H98.1221V51.4258C98.3799 50.9336 98.7197 50.5586 99.1416 50.3008C99.5635 50.043 100.05 49.9141 100.601 49.9141C101.169 49.9141 101.652 50.0459 102.051 50.3096C102.455 50.5674 102.766 50.9482 102.982 51.4521C103.293 50.9365 103.674 50.5527 104.125 50.3008C104.576 50.043 105.101 49.9141 105.698 49.9141C106.524 49.9141 107.175 50.166 107.649 50.6699C108.124 51.168 108.361 51.8535 108.361 52.7266V58H107.28V53.1572C107.28 52.3955 107.122 51.8213 106.806 51.4346C106.495 51.0479 106.029 50.8545 105.408 50.8545C104.664 50.8545 104.116 51.0977 103.765 51.584C103.419 52.0703 103.246 52.8408 103.246 53.8955V58H102.174V53.1572C102.174 52.3604 102.024 51.7773 101.726 51.4082C101.427 51.0391 100.964 50.8545 100.337 50.8545C99.5752 50.8545 99.0156 51.1006 98.6582 51.5928C98.3008 52.085 98.1221 52.8525 98.1221 53.8955V58ZM111.745 54.1855C111.745 55.1934 111.971 55.9697 112.422 56.5146C112.879 57.0596 113.529 57.332 114.373 57.332C115.193 57.332 115.838 57.0361 116.307 56.4443C116.781 55.8467 117.019 55.0264 117.019 53.9834C117.019 53.0283 116.784 52.2783 116.315 51.7334C115.847 51.1826 115.205 50.9072 114.391 50.9072C113.576 50.9072 112.932 51.2002 112.457 51.7861C111.982 52.3662 111.745 53.166 111.745 54.1855ZM117.001 58V56.5762C116.743 57.1504 116.38 57.5898 115.911 57.8945C115.448 58.1934 114.9 58.3428 114.268 58.3428C113.148 58.3428 112.246 57.959 111.561 57.1914C110.881 56.4238 110.541 55.4102 110.541 54.1504C110.541 52.9023 110.878 51.8857 111.552 51.1006C112.226 50.3096 113.096 49.9141 114.162 49.9141C114.824 49.9141 115.396 50.0605 115.876 50.3535C116.362 50.6406 116.737 51.0654 117.001 51.6279V50.2041H118.082V58H117.001ZM120.982 58V50.2041H122.011V51.4082C122.327 50.9102 122.714 50.5381 123.171 50.292C123.634 50.04 124.164 49.9141 124.762 49.9141C125.646 49.9141 126.335 50.1602 126.827 50.6523C127.319 51.1445 127.565 51.8301 127.565 52.709V58H126.467V53.1924C126.467 52.4131 126.303 51.8359 125.975 51.4609C125.652 51.0801 125.151 50.8896 124.472 50.8896C123.646 50.8896 123.036 51.1357 122.644 51.6279C122.257 52.1143 122.063 52.8818 122.063 53.9307V58H120.982ZM137.225 50.2041V56.6465C137.225 57.6719 137.195 58.4541 137.137 58.9932C137.084 59.5322 136.993 59.9336 136.864 60.1973C136.595 60.7773 136.182 61.208 135.625 61.4893C135.068 61.7764 134.365 61.9199 133.516 61.9199C132.479 61.9199 131.67 61.7178 131.09 61.3135C130.516 60.915 130.167 60.3086 130.044 59.4941H131.397C131.485 59.9746 131.714 60.3379 132.083 60.584C132.458 60.8301 132.965 60.9531 133.604 60.9531C134.084 60.9531 134.515 60.8682 134.896 60.6982C135.282 60.5283 135.572 60.2939 135.766 59.9951C135.895 59.8018 135.985 59.5762 136.038 59.3184C136.097 59.0664 136.126 58.6738 136.126 58.1406V57.7275V56.5586C135.886 57.1152 135.517 57.5518 135.019 57.8682C134.526 58.1846 133.961 58.3428 133.322 58.3428C132.227 58.3428 131.351 57.9619 130.694 57.2002C130.044 56.4385 129.719 55.416 129.719 54.1328C129.719 52.8613 130.053 51.8418 130.721 51.0742C131.389 50.3008 132.273 49.9141 133.375 49.9141C133.99 49.9141 134.547 50.0752 135.045 50.3975C135.549 50.7139 135.909 51.1357 136.126 51.6631V50.2041H137.225ZM133.498 50.9072C132.689 50.9072 132.051 51.1973 131.582 51.7773C131.119 52.3516 130.888 53.1426 130.888 54.1504C130.888 55.1523 131.107 55.9346 131.547 56.4971C131.992 57.0537 132.607 57.332 133.393 57.332C134.225 57.332 134.89 57.0361 135.388 56.4443C135.892 55.8525 136.144 55.0557 136.144 54.0537C136.144 53.0693 135.909 52.2988 135.44 51.7422C134.972 51.1855 134.324 50.9072 133.498 50.9072Z" fill="white" fill-opacity="0.5"/>
<g clip-path="url(#clip0)">
<path d="M66.7784 4.91578C65.8259 5.33864 64.8022 5.62342 63.7278 5.75179C64.8249 5.09485 65.6673 4.05389 66.0632 2.81336C65.0374 3.42176 63.9004 3.86403 62.6901 4.10243C61.7225 3.07009 60.3406 2.42502 58.8132 2.42502C55.3839 2.42502 52.864 5.6245 53.6385 8.94588C49.2255 8.72474 45.3119 6.61045 42.6917 3.39694C41.3002 5.78415 41.97 8.90704 44.3346 10.4884C43.4651 10.4604 42.6453 10.222 41.9301 9.82396C41.8719 12.2845 43.6356 14.5865 46.19 15.0989C45.4424 15.3017 44.6237 15.3492 43.7909 15.1895C44.4662 17.2995 46.4273 18.8345 48.753 18.8776C46.5201 20.6284 43.7068 21.4105 40.8892 21.0782C43.2397 22.5852 46.0325 23.4644 49.0313 23.4644C58.893 23.4644 64.4646 15.1356 64.128 7.66544C65.1657 6.91573 66.0665 5.98048 66.7784 4.91578Z" fill="white"/>
</g>
<g clip-path="url(#clip1)">
<path d="M105.51 7.55115H97.9591V5.39371H105.51V7.55115ZM107.372 18.3383C106.895 19.7374 105.183 21.5745 101.869 21.5745C98.5535 21.5745 95.8675 19.7094 95.8675 15.4528C95.8675 11.235 98.3755 9.06675 101.764 9.06675C105.088 9.06675 107.119 10.989 107.562 13.8412C107.646 14.387 107.679 15.1227 107.664 16.1496H99.0055C99.1457 19.6134 102.763 19.7223 103.955 18.3383H107.372ZM99.081 14.0235H104.437C104.324 12.3547 103.211 11.6298 101.765 11.6298C100.183 11.6298 99.3086 12.4582 99.081 14.0235ZM88.7533 21.5616H81.7783V5.41636H89.2787C95.1857 5.50374 95.2979 11.2889 92.2128 12.866C95.9462 14.2252 96.0714 21.5616 88.7533 21.5616ZM85.0145 11.866H88.8806C91.586 11.866 92.0154 8.62987 88.544 8.62987H85.0145V11.866ZM88.6724 15.1022H85.0145V18.3556H88.6185C91.914 18.3556 91.7122 15.1022 88.6724 15.1022Z" fill="white"/>
</g>
<g clip-path="url(#clip2)">
<path d="M12.9446 0C5.79488 0 0 5.79596 0 12.9446C0 20.0933 5.79488 25.8893 12.9446 25.8893C20.0944 25.8893 25.8893 20.0933 25.8893 12.9446C25.8893 5.79596 20.0944 0 12.9446 0ZM23.6078 12.3416C20.8301 11.8864 18.2757 11.8616 15.9456 12.2629C15.6824 11.6556 15.4095 11.0493 15.1183 10.4506C17.6101 9.37191 19.6111 7.90701 21.103 6.0473C22.5593 7.76678 23.4729 9.95119 23.6078 12.3416ZM19.4633 4.48639C18.1635 6.16272 16.3696 7.48847 14.0848 8.45608C12.9889 6.44859 11.7354 4.49071 10.3223 2.59001C11.1626 2.3775 12.0385 2.25129 12.9446 2.25129C15.3987 2.25129 17.6565 3.09161 19.4633 4.48639ZM8.11952 3.41523C9.5553 5.29435 10.8282 7.23174 11.935 9.21982C9.31366 9.9911 6.1843 10.387 2.56735 10.4118C3.31383 7.35363 5.3731 4.81001 8.11952 3.41523ZM2.25129 12.9446L2.26531 12.6685C6.4173 12.6631 9.99865 12.1852 12.9986 11.2424C13.2499 11.7548 13.4905 12.2694 13.7213 12.7871C10.0752 13.9273 7.07101 16.2628 4.72803 19.7772C3.1833 17.9229 2.25129 15.5411 2.25129 12.9446ZM6.3817 21.3694C8.5057 18.0383 11.2165 15.8701 14.5778 14.868C15.5789 17.4785 16.3135 20.1645 16.7816 22.9152C13.169 24.3079 9.2813 23.6337 6.3817 21.3694ZM18.8797 21.8333C18.4073 19.2951 17.7147 16.814 16.8086 14.3934C18.8323 14.1075 21.0588 14.1819 23.4956 14.6048C23.0242 17.6101 21.3079 20.2055 18.8797 21.8333Z" fill="white"/>
</g>
<g clip-path="url(#clip3)">
<path d="M134.668 4.16312C137.872 4.16312 138.252 4.17512 139.518 4.23312C142.77 4.38112 144.289 5.92412 144.437 9.15212C144.495 10.4171 144.506 10.7971 144.506 14.0011C144.506 17.2061 144.494 17.5851 144.437 18.8501C144.288 22.0751 142.773 23.6211 139.518 23.7691C138.252 23.8271 137.874 23.8391 134.668 23.8391C131.464 23.8391 131.084 23.8271 129.819 23.7691C126.559 23.6201 125.048 22.0701 124.9 18.8491C124.842 17.5841 124.83 17.2051 124.83 14.0001C124.83 10.7961 124.843 10.4171 124.9 9.15112C125.049 5.92412 126.564 4.38012 129.819 4.23212C131.085 4.17512 131.464 4.16312 134.668 4.16312ZM134.668 2.00012C131.409 2.00012 131.001 2.01412 129.721 2.07212C125.363 2.27212 122.941 4.69012 122.741 9.05212C122.682 10.3331 122.668 10.7411 122.668 14.0001C122.668 17.2591 122.682 17.6681 122.74 18.9481C122.94 23.3061 125.358 25.7281 129.72 25.9281C131.001 25.9861 131.409 26.0001 134.668 26.0001C137.927 26.0001 138.336 25.9861 139.616 25.9281C143.97 25.7281 146.398 23.3101 146.595 18.9481C146.654 17.6681 146.668 17.2591 146.668 14.0001C146.668 10.7411 146.654 10.3331 146.596 9.05312C146.4 4.69912 143.979 2.27312 139.617 2.07312C138.336 2.01412 137.927 2.00012 134.668 2.00012V2.00012ZM134.668 7.83812C131.265 7.83812 128.506 10.5971 128.506 14.0001C128.506 17.4031 131.265 20.1631 134.668 20.1631C138.071 20.1631 140.83 17.4041 140.83 14.0001C140.83 10.5971 138.071 7.83812 134.668 7.83812ZM134.668 18.0001C132.459 18.0001 130.668 16.2101 130.668 14.0001C130.668 11.7911 132.459 10.0001 134.668 10.0001C136.877 10.0001 138.668 11.7911 138.668 14.0001C138.668 16.2101 136.877 18.0001 134.668 18.0001ZM141.074 6.15512C140.278 6.15512 139.633 6.80012 139.633 7.59512C139.633 8.39012 140.278 9.03512 141.074 9.03512C141.869 9.03512 142.513 8.39012 142.513 7.59512C142.513 6.80012 141.869 6.15512 141.074 6.15512Z" fill="white"/>
</g>
<defs>
<clipPath id="clip0">
<rect width="25.8893" height="25.8893" fill="white" transform="translate(40.8892)"/>
</clipPath>
<clipPath id="clip1">
<rect width="25.8893" height="25.8893" fill="white" transform="translate(81.7783 0.00012207)"/>
</clipPath>
<clipPath id="clip2">
<rect width="25.8893" height="25.8893" fill="white"/>
</clipPath>
<clipPath id="clip3">
<rect width="24" height="24" fill="white" transform="translate(122.668 2.00012)"/>
</clipPath>
</defs>
</svg>
